<svg viewBox="0 0 1000 520" xmlns="http://www.w3.org/2000/svg">
  <polygon points="0,0 100,0 190,81 0,63" fill="rgba(255,0,0,0.5)" stroke="white" />
  <text x="81.60717573447336" y="40.6131467222519" fill="white" font-size="12">0</text>
  <polygon points="111,0 392,0 275,150" fill="rgba(255,0,0,0.5)" stroke="white" />
  <text x="259.5357929212958" y="49.482190132193516" fill="white" font-size="12">1</text>
  <polygon points="401,0 605,0 593,94 283,152" fill="rgba(255,0,0,0.5)" stroke="white" />
  <text x="460.55210422367855" y="66.92314215031081" fill="white" font-size="12">2</text>
  <polygon points="613,0 913,0 601,93" fill="rgba(255,0,0,0.5)" stroke="white" />
  <text x="709.2070945687243" y="31.029805045471967" fill="white" font-size="12">3</text>
  <polygon points="934,0 999,0 999,42 819,217 615,260 486,183 563,111" fill="rgba(255,0,0,0.5)" stroke="white" />
  <text x="740.0095794039421" y="131.60306609177331" fill="white" font-size="12">4</text>
  <polygon points="999,50 999,176 827,215 804,172" fill="rgba(255,0,0,0.5)" stroke="white" />
  <text x="919.8126795509481" y="146.84759550245573" fill="white" font-size="12">5</text>
  <polygon points="0,70 195,89 0,238" fill="rgba(255,0,0,0.5)" stroke="white" />
  <text x="65.43303643752151" y="132.4000546764441" fill="white" font-size="12">6</text>
  <polygon points="202,92 384,263 379,272 45,213" fill="rgba(255,0,0,0.5)" stroke="white" />
  <text x="215.01422306817065" y="193.2244674332744" fill="white" font-size="12">7</text>
  <polygon points="547,114 391,261 284,158" fill="rgba(255,0,0,0.5)" stroke="white" />
  <text x="408.7379421869676" y="177.54804747957732" fill="white" font-size="12">8</text>
  <polygon points="480,188 526,355 339,319" fill="rgba(255,0,0,0.5)" stroke="white" />
  <text x="449.53401115621807" y="286.62395190474655" fill="white" font-size="12">9</text>
  <polygon points="999,183 999,278 955,319 636,263" fill="rgba(255,0,0,0.5)" stroke="white" />
  <text x="873.8903557282753" y="255.84942477437272" fill="white" font-size="12">10</text>
  <polygon points="493,196 720,335 548,409" fill="rgba(255,0,0,0.5)" stroke="white" />
  <text x="587.273516854244" y="313.06600930201796" fill="white" font-size="12">11</text>
  <polygon points="37,219 237,255 0,437 0,247" fill="rgba(255,0,0,0.5)" stroke="white" />
  <text x="80.68907792314272" y="303.16247790742943" fill="white" font-size="12">12</text>
  <polygon points="248,257 373,278 322,515" fill="rgba(255,0,0,0.5)" stroke="white" />
  <text x="304.928788927803" y="352.38882387528366" fill="white" font-size="12">13</text>
  <polygon points="241,261 313,514 3,444" fill="rgba(255,0,0,0.5)" stroke="white" />
  <text x="185.66726688325411" y="405.7634727823031" fill="white" font-size="12">14</text>
  <polygon points="628,269 948,325 851,410" fill="rgba(255,0,0,0.5)" stroke="white" />
  <text x="809.2014528274133" y="334.63959647344444" fill="white" font-size="12">15</text>
  <polygon points="999,288 999,506 859,414" fill="rgba(255,0,0,0.5)" stroke="white" />
  <text x="951.333644959701" y="402.05472735268256" fill="white" font-size="12">16</text>
  <polygon points="334,326 529,363 541,412 330,513" fill="rgba(255,0,0,0.5)" stroke="white" />
  <text x="413.6631488469903" y="407.0551010657279" fill="white" font-size="12">17</text>
  <polygon points="727,340 684,519 613,519 499,438" fill="rgba(255,0,0,0.5)" stroke="white" />
  <text x="632.5398946754672" y="439.97272947563664" fill="white" font-size="12">18</text>
  <polygon points="736,345 999,519 693,519" fill="rgba(255,0,0,0.5)" stroke="white" />
  <text x="811.7576542341653" y="461.0766350027113" fill="white" font-size="12">19</text>
  <polygon points="491,441 602,519 334,519" fill="rgba(255,0,0,0.5)" stroke="white" />
  <text x="475.496518867134" y="493.38970742327575" fill="white" font-size="12">20</text>
  <polygon points="0,451 307,519 49,519 0,502" fill="rgba(255,0,0,0.5)" stroke="white" />
  <text x="116.26586757276651" y="495.4785523091738" fill="white" font-size="12">21</text>
</svg>